<svg width="46" height="46" viewBox="0 0 46 46" fill="none" xmlns="http://www.w3.org/2000/svg">
<circle cx="23" cy="23" r="23" fill="#F9F9F9"/>
<path d="M29 29.2883H28.3033C27.57 29.2883 26.8733 29.5725 26.36 30.0858L24.7925 31.6351C24.0775 32.3409 22.9133 32.3409 22.1983 31.6351L20.6308 30.0858C20.1175 29.5725 19.4117 29.2883 18.6875 29.2883H18C16.4783 29.2883 15.25 28.0692 15.25 26.5659V16.565C15.25 15.0617 16.4783 13.8425 18 13.8425H29C30.5217 13.8425 31.75 15.0617 31.75 16.565V26.5659C31.75 28.06 30.5217 29.2883 29 29.2883Z" stroke="#B7E08A" stroke-width="2" stroke-miterlimit="10" stroke-linecap="round" stroke-linejoin="round"/>
<path d="M18.9165 20.3969C18.9165 19.5444 19.6132 18.8477 20.4657 18.8477C21.3182 18.8477 22.0148 19.5444 22.0148 20.3969C22.0148 22.1202 19.5673 22.3035 19.0265 23.9444C18.9165 24.2835 19.2007 24.6227 19.5582 24.6227H22.0148" stroke="#B7E08A" stroke-width="2" stroke-linecap="round" stroke-linejoin="round"/>
<path d="M27.2031 24.6133V19.3792C27.2031 19.1409 27.0473 18.93 26.8181 18.8658C26.5889 18.8016 26.3415 18.8933 26.2131 19.095C25.5531 20.1583 24.8381 21.3683 24.2148 22.4317C24.114 22.6058 24.114 22.835 24.2148 23.0092C24.3156 23.1833 24.5081 23.2933 24.719 23.2933H28.0831" stroke="#B7E08A" stroke-width="2" stroke-linecap="round" stroke-linejoin="round"/>
</svg>
