<svg width="76" height="76" viewBox="0 0 76 76" fill="none" xmlns="http://www.w3.org/2000/svg">
<circle cx="38" cy="38" r="38" fill="#F9F9F9"/>
<path d="M35.8876 27.7408L29.366 31.9983C27.2751 33.3633 27.2751 36.4183 29.366 37.7833L35.8876 42.0408C37.0576 42.81 38.986 42.81 40.156 42.0408L46.6451 37.7833C48.7251 36.4183 48.7251 33.3741 46.6451 32.0091L40.156 27.7516C38.986 26.9716 37.0576 26.9716 35.8876 27.7408Z" stroke="#111111" stroke-width="2" stroke-linecap="round" stroke-linejoin="round"/>
<path d="M31.0992 39.17L31.0884 44.2508C31.0884 45.6266 32.15 47.1 33.45 47.5333L36.9059 48.6816C37.5017 48.8766 38.4875 48.8766 39.0942 48.6816L42.55 47.5333C43.85 47.1 44.9117 45.6266 44.9117 44.2508V39.2241" stroke="#111111" stroke-width="2" stroke-linecap="round" stroke-linejoin="round"/>
<path d="M48.1831 41.25V34.75" stroke="#111111" stroke-width="2" stroke-linecap="round" stroke-linejoin="round"/>
</svg>
