<svg width="46" height="46" viewBox="0 0 46 46" fill="none" xmlns="http://www.w3.org/2000/svg">
<circle cx="23" cy="23" r="23" fill="#F9F9F9"/>
<path d="M23.986 30.7183H18.1927C15.296 30.7183 14.3335 28.7933 14.3335 26.8591V19.1408C14.3335 16.2441 15.296 15.2816 18.1927 15.2816H23.986C26.8827 15.2816 27.8452 16.2441 27.8452 19.1408V26.8591C27.8452 29.7558 26.8735 30.7183 23.986 30.7183Z" stroke="#3860E2" stroke-width="2" stroke-linecap="round" stroke-linejoin="round"/>
<path d="M30.3935 27.675L27.8452 25.8875V20.1033L30.3935 18.3158C31.6402 17.445 32.6669 17.9767 32.6669 19.5075V26.4925C32.6669 28.0233 31.6402 28.555 30.3935 27.675Z" stroke="#3860E2" stroke-width="2" stroke-linecap="round" stroke-linejoin="round"/>
<path d="M23.0415 22.0834C23.8009 22.0834 24.4165 21.4678 24.4165 20.7084C24.4165 19.949 23.8009 19.3334 23.0415 19.3334C22.2821 19.3334 21.6665 19.949 21.6665 20.7084C21.6665 21.4678 22.2821 22.0834 23.0415 22.0834Z" stroke="#3860E2" stroke-width="2" stroke-linecap="round" stroke-linejoin="round"/>
</svg>
