<svg width="46" height="46" viewBox="0 0 46 46" fill="none" xmlns="http://www.w3.org/2000/svg">
<circle cx="23" cy="23" r="23" fill="#F9F9F9"/>
<path d="M23.5002 32.1667C28.5628 32.1667 32.6668 28.0626 32.6668 23C32.6668 17.9374 28.5628 13.8333 23.5002 13.8333C18.4376 13.8333 14.3335 17.9374 14.3335 23C14.3335 28.0626 18.4376 32.1667 23.5002 32.1667Z" stroke="#B7E08A" stroke-width="2" stroke-linecap="round" stroke-linejoin="round"/>
<path d="M19.8331 14.75H20.7498C18.9623 20.1033 18.9623 25.8967 20.7498 31.25H19.8331" stroke="#B7E08A" stroke-width="2" stroke-linecap="round" stroke-linejoin="round"/>
<path d="M26.25 14.75C28.0375 20.1033 28.0375 25.8967 26.25 31.25" stroke="#B7E08A" stroke-width="2" stroke-linecap="round" stroke-linejoin="round"/>
<path d="M15.25 26.6667V25.75C20.6033 27.5375 26.3967 27.5375 31.75 25.75V26.6667" stroke="#B7E08A" stroke-width="2" stroke-linecap="round" stroke-linejoin="round"/>
<path d="M15.25 20.25C20.6033 18.4625 26.3967 18.4625 31.75 20.25" stroke="#B7E08A" stroke-width="1.5" stroke-linecap="round" stroke-linejoin="round"/>
</svg>
